<svg width="60" height="60" viewBox="0 0 60 60" fill="none" xmlns="http://www.w3.org/2000/svg">
<path d="M54.4321 4.6875H5.5093C3.48953 4.6875 1.8457 6.33133 1.8457 8.3511V51.2108C1.8457 53.2309 3.48953 54.8744 5.5093 54.8744H54.4321C56.4519 54.8744 58.0957 53.2309 58.0957 51.2108V39.2738C58.0957 38.6672 57.6041 38.1752 56.9971 38.1752C56.3901 38.1752 55.8984 38.6672 55.8984 39.2738V51.2108C55.8984 52.0193 55.2406 52.6772 54.4321 52.6772H5.5093C4.70078 52.6772 4.04297 52.0193 4.04297 51.2108V16.527H55.8984V26.7494C55.8984 27.3564 56.3901 27.8481 56.9971 27.8481C57.6041 27.8481 58.0957 27.3564 58.0957 26.7494V8.3511C58.0957 6.33133 56.4519 4.6875 54.4321 4.6875ZM4.04297 14.3297V8.3511C4.04297 7.54257 4.70078 6.88477 5.5093 6.88477H54.4321C55.2406 6.88477 55.8984 7.54257 55.8984 8.3511V14.3297H4.04297Z" fill="white"/>
<path d="M10.8905 11.7061H9.93848C9.33183 11.7061 8.83984 11.2141 8.83984 10.6074C8.83984 10.0004 9.33183 9.50879 9.93848 9.50879H10.8905C11.4972 9.50879 11.9891 10.0004 11.9891 10.6074C11.9891 11.2141 11.4972 11.7061 10.8905 11.7061Z" fill="white"/>
<path d="M16.3107 11.7061H15.3586C14.752 11.7061 14.26 11.2141 14.26 10.6074C14.26 10.0004 14.752 9.50879 15.3586 9.50879H16.3107C16.9177 9.50879 17.4093 10.0004 17.4093 10.6074C17.4093 11.2141 16.9177 11.7061 16.3107 11.7061Z" fill="white"/>
<path d="M21.7307 11.7061H20.7783C20.172 11.7061 19.6797 11.2141 19.6797 10.6074C19.6797 10.0004 20.172 9.50879 20.7783 9.50879H21.7307C22.3373 9.50879 22.8293 10.0004 22.8293 10.6074C22.8293 11.2141 22.3373 11.7061 21.7307 11.7061Z" fill="white"/>
<path d="M45.5355 11.7061H27.4441C26.8374 11.7061 26.3455 11.2141 26.3455 10.6074C26.3455 10.0004 26.8374 9.50879 27.4441 9.50879H45.5355C46.1425 9.50879 46.6341 10.0004 46.6341 10.6074C46.6341 11.2141 46.1425 11.7061 45.5355 11.7061Z" fill="white"/>
<path d="M50.0032 11.7064C49.9307 11.7064 49.8593 11.6985 49.7876 11.6841C49.7172 11.67 49.6482 11.6494 49.5826 11.6219C49.5163 11.5945 49.4525 11.5601 49.3924 11.5206C49.3327 11.4812 49.277 11.4348 49.2255 11.3843C49.1747 11.3339 49.1298 11.2769 49.0889 11.2171C49.0494 11.1571 49.0154 11.0932 48.988 11.0273C48.9605 10.9614 48.9396 10.8924 48.9255 10.822C48.9111 10.7506 48.9045 10.6788 48.9045 10.6077C48.9045 10.5353 48.9111 10.4635 48.9255 10.3921C48.9396 10.3218 48.9605 10.2538 48.988 10.1868C49.0154 10.1209 49.0494 10.0571 49.0889 9.998C49.1298 9.93723 49.1747 9.88161 49.2255 9.82977C49.277 9.7793 49.3327 9.73433 49.3924 9.69347C49.4525 9.65399 49.5163 9.62035 49.5826 9.59288C49.6482 9.56541 49.7172 9.54413 49.7876 9.53005C49.9297 9.50121 50.0756 9.50121 50.2171 9.53005C50.2878 9.54413 50.3568 9.56541 50.4227 9.59288C50.489 9.62035 50.5535 9.65399 50.6129 9.69347C50.6733 9.73433 50.7293 9.7793 50.7798 9.82977C50.8306 9.88161 50.8762 9.93723 50.9161 9.998C50.9559 10.0571 50.9895 10.1209 51.017 10.1868C51.0445 10.2538 51.0658 10.3218 51.0798 10.3921C51.0939 10.4635 51.1018 10.5353 51.1018 10.6077C51.1018 10.6788 51.0939 10.7506 51.0798 10.822C51.0658 10.8924 51.0445 10.9614 51.017 11.0273C50.9895 11.0932 50.9559 11.1571 50.9161 11.2171C50.8762 11.2769 50.8306 11.3339 50.7798 11.3843C50.7293 11.4348 50.6723 11.4812 50.6129 11.5206C50.5525 11.5601 50.489 11.5945 50.4227 11.6219C50.3568 11.6494 50.2878 11.67 50.2171 11.6841C50.146 11.6985 50.0742 11.7064 50.0032 11.7064Z" fill="white"/>
<path d="M56.9971 34.2719C56.9257 34.2719 56.8532 34.2644 56.7828 34.2503C56.7125 34.2359 56.6434 34.215 56.5775 34.1875C56.5102 34.16 56.4464 34.126 56.3873 34.0865C56.3269 34.0471 56.2709 34.0007 56.2205 33.9503C56.1697 33.9001 56.1237 33.8438 56.0842 33.7834C56.0443 33.724 56.0104 33.6601 55.9829 33.5932C55.9554 33.5276 55.9335 33.4579 55.9204 33.3879C55.906 33.3175 55.8984 33.2451 55.8984 33.1733C55.8984 33.1022 55.906 33.0298 55.9204 32.9594C55.9335 32.889 55.9554 32.8197 55.9829 32.7541C56.0104 32.6872 56.0443 32.6233 56.0842 32.5639C56.1237 32.5035 56.1697 32.4472 56.2205 32.3971C56.2709 32.3466 56.3269 32.3002 56.3873 32.2597C56.4464 32.2213 56.5102 32.1873 56.5765 32.1598C56.6434 32.1324 56.7125 32.1104 56.7828 32.097C56.9246 32.0685 57.0709 32.0685 57.2113 32.097C57.2817 32.1104 57.3507 32.1324 57.4166 32.1598C57.4839 32.1873 57.5478 32.2213 57.6068 32.2597C57.6672 32.3002 57.7232 32.3466 57.7737 32.3971C57.9783 32.6013 58.0957 32.8846 58.0957 33.1733C58.0957 33.2451 58.0892 33.3175 58.0748 33.3879C58.0607 33.4583 58.0387 33.5276 58.0112 33.5932C57.9838 33.6601 57.9498 33.724 57.91 33.7834C57.8705 33.8438 57.8245 33.8994 57.7737 33.9503C57.7232 34.0007 57.6672 34.0471 57.6068 34.0865C57.5478 34.126 57.4839 34.16 57.4166 34.1875C57.3507 34.215 57.2817 34.2359 57.2113 34.2503C57.1409 34.2644 57.0685 34.2719 56.9971 34.2719Z" fill="white"/>
<path d="M19.1417 47.7567C18.1952 47.7567 17.3056 47.3879 16.6368 46.7188L8.43899 38.5213C7.76985 37.8521 7.40112 36.9626 7.40112 36.016C7.40112 35.0702 7.76985 34.1806 8.43899 33.5115L16.6368 25.3136C17.306 24.6445 18.1952 24.2761 19.1417 24.2761C20.0879 24.2761 20.9775 24.6445 21.6466 25.314C22.3154 25.9824 22.6838 26.8723 22.6838 27.8185C22.6838 28.7647 22.3154 29.6539 21.6466 30.3234L15.9533 36.016L21.6466 41.7094C22.3154 42.3785 22.6841 43.2681 22.6841 44.2142C22.6841 45.1604 22.3154 46.0497 21.6466 46.7188C20.9775 47.3879 20.0879 47.7567 19.1417 47.7567ZM19.1417 26.4734C18.7823 26.4734 18.4448 26.6135 18.1907 26.8675L9.99252 35.065C9.73846 35.3191 9.59839 35.6569 9.59839 36.016C9.59839 36.3758 9.73846 36.7137 9.99252 36.967L18.1907 45.1653C18.4448 45.4193 18.7819 45.5594 19.1417 45.5594C19.5008 45.5594 19.8387 45.4193 20.0927 45.1653C20.3468 44.9112 20.4865 44.5734 20.4865 44.2142C20.4865 43.8551 20.3468 43.5173 20.0927 43.2632L13.6221 36.7933C13.4161 36.587 13.3008 36.3075 13.3008 36.016C13.3008 35.7253 13.4161 35.4458 13.6221 35.2394L20.0927 28.7695C20.3468 28.5155 20.4865 28.1776 20.4865 27.8185C20.4865 27.4594 20.3468 27.1216 20.0927 26.8675C19.8387 26.6135 19.5008 26.4734 19.1417 26.4734Z" fill="white"/>
<path d="M40.7999 47.7567C39.8537 47.7567 38.9641 47.3879 38.2957 46.7188C37.6265 46.0497 37.2578 45.1604 37.2578 44.2142C37.2578 43.2681 37.6265 42.3785 38.2957 41.7094L43.9887 36.016L38.2957 30.3234C37.6265 29.6543 37.2578 28.7644 37.2578 27.8185C37.2578 26.8723 37.6265 25.9824 38.2957 25.3136C38.9645 24.6445 39.8544 24.2761 40.7999 24.2761C41.7464 24.2761 42.636 24.6445 43.3051 25.3136L51.5026 33.5115C52.1718 34.1806 52.5405 35.0702 52.5405 36.016C52.5405 36.9626 52.1718 37.8521 51.5026 38.5213L43.3051 46.7188C42.636 47.3879 41.7464 47.7567 40.7999 47.7567ZM40.7999 26.4734C40.4408 26.4734 40.1029 26.6135 39.8489 26.8675C39.5948 27.1216 39.4551 27.4594 39.4551 27.8185C39.4551 28.1776 39.5948 28.5155 39.8489 28.7695L46.3195 35.2394C46.5255 35.4458 46.6408 35.7253 46.6408 36.016C46.6408 36.3075 46.5255 36.587 46.3195 36.7933L39.8489 43.2632C39.5948 43.5173 39.4551 43.8551 39.4551 44.2142C39.4551 44.5734 39.5948 44.9112 39.8489 45.1653C40.1029 45.4193 40.4408 45.5594 40.7999 45.5594C41.1597 45.5594 41.4968 45.4193 41.7509 45.1653L49.9491 36.967C50.2031 36.7137 50.3432 36.3758 50.3432 36.016C50.3432 35.6569 50.2031 35.3191 49.9491 35.065L41.7516 26.8675C41.4968 26.6135 41.1593 26.4734 40.7999 26.4734Z" fill="white"/>
<path d="M28.4374 47.2949C28.173 47.2949 27.9077 47.2646 27.6484 47.2056C25.744 46.7716 24.5476 44.8693 24.9815 42.9649L28.5064 27.4941C28.94 25.5893 30.8424 24.3928 32.7468 24.8268C33.669 25.0372 34.4548 25.5941 34.9588 26.3951C35.4621 27.1957 35.6238 28.145 35.4137 29.0672L31.8892 44.5387C31.5191 46.1612 30.0998 47.2949 28.4374 47.2949ZM31.9599 26.9358C31.346 26.9358 30.7905 27.3591 30.6487 27.9819L27.1238 43.4531C26.9594 44.1761 27.4133 44.8985 28.1366 45.0633C28.2362 45.0859 28.3371 45.0976 28.4374 45.0976C29.0578 45.0976 29.6085 44.6571 29.7468 44.0505L33.2714 28.5793C33.351 28.2291 33.2899 27.8686 33.0987 27.5648C32.9075 27.2606 32.6091 27.0495 32.2589 26.9695C32.1583 26.9465 32.0584 26.9358 31.9599 26.9358Z" fill="white"/>
</svg>
