<svg width="56" height="56" viewBox="0 0 56 56" fill="none" xmlns="http://www.w3.org/2000/svg">
<g clip-path="url(#clip0_441_6631)">
<path d="M45.282 16.2695C45.886 16.2695 46.3757 15.7799 46.3757 15.1758V3.28125C46.3757 1.47197 44.9038 0 43.0945 0H3.28198C1.4727 0 0.000732422 1.47197 0.000732422 3.28125V52.7188C0.000732422 54.528 1.4727 56 3.28198 56H43.0945C44.9038 56 46.3757 54.528 46.3757 52.7188V44.6609C46.3757 44.0568 45.886 43.5671 45.282 43.5671C44.678 43.5671 44.1882 44.0568 44.1882 44.6609V52.7188C44.1882 53.3218 43.6976 53.8125 43.0945 53.8125H3.28198C2.67889 53.8125 2.18823 53.3218 2.18823 52.7188V3.28125C2.18823 2.67816 2.67889 2.1875 3.28198 2.1875H43.0945C43.6976 2.1875 44.1882 2.67816 44.1882 3.28125V15.1758C44.1882 15.7799 44.678 16.2695 45.282 16.2695Z" fill="white"/>
<path d="M23.1882 5.90625C17.6397 5.90625 13.1257 10.4203 13.1257 15.9688C13.1257 18.8472 14.3409 21.4468 16.2847 23.2825C16.3211 23.3215 16.3598 23.3583 16.4022 23.3919C18.1927 25.0303 20.5757 26.0311 23.1881 26.0311C25.8005 26.0311 28.1835 25.0301 29.9741 23.3919C30.0164 23.3583 30.0551 23.3214 30.0915 23.2825C32.0356 21.4468 33.2507 18.8472 33.2507 15.9688C33.2507 10.4203 28.7367 5.90625 23.1882 5.90625ZM23.1882 23.8438C21.4022 23.8438 19.754 23.2453 18.4314 22.2394C19.3927 20.5348 21.1866 19.4688 23.1882 19.4688C25.1899 19.4688 26.9838 20.5348 27.9451 22.2394C26.6224 23.2453 24.9742 23.8438 23.1882 23.8438ZM21.4382 15.5312V14.8203C21.4382 13.8554 22.2233 13.0703 23.1882 13.0703C24.1531 13.0703 24.9382 13.8554 24.9382 14.8203V15.5312C24.9382 16.4962 24.1531 17.2812 23.1882 17.2812C22.2233 17.2812 21.4382 16.4962 21.4382 15.5312ZM29.5254 20.6372C28.7188 19.4409 27.6009 18.5104 26.3029 17.936C26.8181 17.2702 27.1257 16.4362 27.1257 15.5312V14.8203C27.1257 12.6491 25.3594 10.8828 23.1882 10.8828C21.017 10.8828 19.2507 12.6491 19.2507 14.8203V15.5312C19.2507 16.4362 19.5584 17.2702 20.0736 17.936C18.7756 18.5104 17.6577 19.4409 16.851 20.6372C15.8854 19.3298 15.3132 17.7151 15.3132 15.9688C15.3132 11.6265 18.8459 8.09375 23.1882 8.09375C27.5305 8.09375 31.0632 11.6265 31.0632 15.9688C31.0632 17.7151 30.4911 19.3298 29.5254 20.6372Z" fill="white"/>
<path d="M29.0945 47.9062H23.1882C22.5843 47.9062 22.0945 48.3959 22.0945 49C22.0945 49.6041 22.5843 50.0938 23.1882 50.0938H29.0945C29.6984 50.0938 30.1882 49.6041 30.1882 49C30.1882 48.3959 29.6984 47.9062 29.0945 47.9062Z" fill="white"/>
<path d="M29.0945 41.7812H13.5632C12.9593 41.7812 12.4695 42.2709 12.4695 42.875C12.4695 43.4791 12.9593 43.9688 13.5632 43.9688H29.0945C29.6985 43.9688 30.1882 43.4791 30.1882 42.875C30.1882 42.2709 29.6985 41.7812 29.0945 41.7812Z" fill="white"/>
<path d="M29.0945 35.6562H13.5632C12.9593 35.6562 12.4695 36.1459 12.4695 36.75C12.4695 37.3541 12.9593 37.8438 13.5632 37.8438H29.0945C29.6985 37.8438 30.1882 37.3541 30.1882 36.75C30.1882 36.1459 29.6985 35.6562 29.0945 35.6562Z" fill="white"/>
<path d="M9.66513 29.8517C9.46181 29.6483 9.17962 29.5312 8.89087 29.5312C8.6031 29.5312 8.32092 29.6483 8.11759 29.8517C7.91415 30.0552 7.79712 30.3373 7.79712 30.625C7.79712 30.9127 7.91404 31.1948 8.11759 31.3983C8.32212 31.6017 8.6031 31.7188 8.89087 31.7188C9.17962 31.7188 9.46071 31.6017 9.66513 31.3983C9.86857 31.1948 9.98571 30.9127 9.98571 30.625C9.98571 30.3373 9.86868 30.0552 9.66513 29.8517Z" fill="white"/>
<path d="M9.66513 35.9767C9.46071 35.7733 9.17962 35.6562 8.89087 35.6562C8.6031 35.6562 8.32212 35.7733 8.11759 35.9767C7.91415 36.1802 7.79712 36.4623 7.79712 36.75C7.79712 37.0377 7.91404 37.3198 8.11759 37.5233C8.32212 37.7267 8.6031 37.8438 8.89087 37.8438C9.17962 37.8438 9.46071 37.7267 9.66513 37.5233C9.86857 37.3198 9.98571 37.0377 9.98571 36.75C9.98571 36.4623 9.86868 36.1802 9.66513 35.9767Z" fill="white"/>
<path d="M9.66513 42.1017C9.46071 41.8983 9.17962 41.7812 8.89087 41.7812C8.6031 41.7812 8.32212 41.8983 8.11759 42.1017C7.91415 42.3052 7.79712 42.5873 7.79712 42.875C7.79712 43.1627 7.91404 43.4448 8.11759 43.6483C8.32092 43.8517 8.6031 43.9688 8.89087 43.9688C9.17962 43.9688 9.46181 43.8517 9.66513 43.6483C9.86857 43.4448 9.98571 43.1627 9.98571 42.875C9.98571 42.5873 9.86868 42.3052 9.66513 42.1017Z" fill="white"/>
<path d="M29.0945 29.5312H13.5632C12.9593 29.5312 12.4695 30.0209 12.4695 30.625C12.4695 31.2291 12.9593 31.7188 13.5632 31.7188H29.0945C29.6985 31.7188 30.1882 31.2291 30.1882 30.625C30.1882 30.0209 29.6985 29.5312 29.0945 29.5312Z" fill="white"/>
<path d="M53.7033 14.2538C52.6408 13.6403 51.4029 13.4773 50.2175 13.7948C49.0323 14.1124 48.0415 14.8726 47.4282 15.9352L33.6642 39.7749C33.5888 39.9056 33.5412 40.0505 33.5244 40.2005L32.5556 48.8787C32.5075 49.3105 32.7194 49.73 33.0957 49.9473C33.2655 50.0453 33.4542 50.0939 33.6424 50.0939C33.8713 50.0939 34.0992 50.0222 34.2911 49.8808L41.3222 44.7026C41.4437 44.6131 41.5454 44.4994 41.6208 44.3687L55.3847 20.529C56.6512 18.3354 55.897 15.5203 53.7033 14.2538ZM35.0069 46.6368L35.5129 42.1052L38.6784 43.9329L35.0069 46.6368ZM40.2733 42.3277L36.1056 39.9214L47.1508 20.7907L51.3185 23.1969L40.2733 42.3277ZM53.4903 19.4352L52.4122 21.3025L48.2444 18.8963L49.3225 17.0289C49.6439 16.4723 50.1628 16.0742 50.7836 15.9078C51.4046 15.7414 52.053 15.8269 52.6095 16.1482C53.1661 16.4696 53.5642 16.9885 53.7306 17.6093C53.8969 18.2301 53.8116 18.8786 53.4903 19.4352Z" fill="white"/>
</g>
<defs>
<clipPath id="clip0_441_6631">
<rect width="56" height="56" fill="white"/>
</clipPath>
</defs>
</svg>
