<svg width="56" height="56" viewBox="0 0 56 56" fill="none" xmlns="http://www.w3.org/2000/svg">
<g clip-path="url(#clip0_62_1024)">
<path d="M51.0118 9.66996C43.3069 7.55881 35.5567 4.27155 28.5991 0.163652C28.2295 -0.0545507 27.7709 -0.0545507 27.4014 0.163652C20.2431 4.38957 12.9117 7.49898 4.98802 9.66996C4.47615 9.81007 4.12134 10.2754 4.12134 10.8061V22.8424C4.12134 35.2371 9.83934 43.4415 14.6363 48.1414C19.8005 53.2017 25.8162 56 28.0003 56C30.1841 56 36.1998 53.2017 41.364 48.1414C46.1609 43.4416 51.8785 35.2372 51.8785 22.8424V10.806C51.8785 10.2754 51.5237 9.81007 51.0118 9.66996ZM49.5226 22.8423C49.5226 34.4188 44.1894 42.0745 39.7151 46.4585C34.6367 51.4345 29.207 53.6439 28.0003 53.6439C26.7935 53.6439 21.3635 51.4345 16.285 46.4585C11.8108 42.0744 6.47738 34.4188 6.47738 22.8423V11.7003C14.0546 9.54888 21.1113 6.54644 28.0005 2.54299C34.7176 6.44023 42.1263 9.59198 49.5226 11.6998V22.8423Z" fill="#303030"/>
<path d="M17.5587 11.5685C17.3203 10.9631 16.6363 10.6657 16.0308 10.9042C13.9265 11.7334 11.7665 12.4966 9.6111 13.1728C9.11989 13.327 8.78564 13.782 8.78564 14.2967V18.8457C8.78564 19.4963 9.31316 20.0237 9.96361 20.0237C10.6141 20.0237 11.1416 19.4963 11.1416 18.8457V15.1576C13.0752 14.532 15.0068 13.84 16.8945 13.0961C17.4999 12.8578 17.7973 12.1739 17.5587 11.5685Z" fill="#303030"/>
<path d="M19.7964 11.792C19.9544 11.792 20.1149 11.7602 20.2688 11.693L20.2904 11.6836C20.8864 11.4224 21.1548 10.7286 20.8936 10.1329C20.6322 9.5369 19.9345 9.26729 19.3392 9.52826L19.3202 9.53646C18.7239 9.79688 18.4546 10.4901 18.715 11.0862C18.9083 11.5287 19.3419 11.792 19.7964 11.792Z" fill="#303030"/>
<path d="M42.0352 37.9841C41.4908 37.6283 40.7608 37.7813 40.4046 38.3258C39.4339 39.8116 38.2951 41.2343 37.0193 42.5542C35.9702 43.6394 34.8334 44.6509 33.6404 45.5603C33.1232 45.9547 33.0237 46.6939 33.418 47.2113C33.6499 47.5153 34.0007 47.6752 34.3555 47.6752C34.6047 47.6752 34.8557 47.5966 35.069 47.4338C36.3558 46.4526 37.5819 45.3618 38.713 44.1917C40.0923 42.765 41.325 41.225 42.377 39.6145C42.733 39.0698 42.5797 38.3398 42.0352 37.9841Z" fill="#303030"/>
<path d="M30.9047 47.4078L30.8371 47.4476C30.2741 47.7736 30.0817 48.4942 30.4077 49.0571C30.6261 49.4345 31.0215 49.6451 31.4282 49.6451C31.6284 49.6451 31.8316 49.5941 32.0172 49.4863L32.0952 49.4405C32.6566 49.1117 32.8452 48.3902 32.5164 47.8287C32.1874 47.2675 31.4658 47.0793 30.9047 47.4078Z" fill="#303030"/>
<path d="M19.9707 25.5958C19.2474 24.8724 18.2854 24.4743 17.2623 24.4743C16.2392 24.4743 15.2772 24.8726 14.5536 25.5958C13.0603 27.0895 13.0603 29.5198 14.5536 31.0133L21.5094 37.9689C22.2328 38.6921 23.1947 39.0903 24.2179 39.0903C25.2411 39.0903 26.2031 38.6921 26.9266 37.9687L41.4473 23.4478C42.9405 21.9539 42.9405 19.5239 41.4471 18.0308C40.7237 17.3074 39.7617 16.9093 38.7384 16.9093C37.7152 16.9093 36.7533 17.3075 36.0297 18.0308L24.2178 29.8428L19.9707 25.5958ZM37.6957 19.6968C37.9741 19.4185 38.3445 19.2652 38.7385 19.2652C39.1327 19.2652 39.5028 19.4185 39.7814 19.6968C40.3562 20.2716 40.3562 21.2072 39.7812 21.7822L25.2607 36.3028C24.9823 36.5811 24.6119 36.7344 24.2179 36.7344C23.824 36.7344 23.4535 36.5811 23.175 36.3028L16.2195 29.3474C15.6445 28.7724 15.6445 27.8368 16.2192 27.2621C16.4977 26.9837 16.8682 26.8303 17.2622 26.8303C17.6563 26.8303 18.0265 26.9835 18.3049 27.2618L23.3848 32.3419C23.6059 32.5627 23.9053 32.6868 24.2178 32.6868C24.5303 32.6868 24.8298 32.5628 25.0506 32.3419L37.6957 19.6968Z" fill="#303030"/>
</g>
<defs>
<clipPath id="clip0_62_1024">
<rect width="56" height="56" fill="white"/>
</clipPath>
</defs>
</svg>
