<svg width="56" height="56" viewBox="0 0 56 56" fill="none" xmlns="http://www.w3.org/2000/svg">
<g clip-path="url(#clip0_62_1065)">
<path d="M12.8333 44.3334C13.6491 44.3265 14.4488 44.1058 15.1527 43.6934C15.8566 43.2809 16.4401 42.6912 16.845 41.9829C17.2499 41.2747 17.462 40.4727 17.4603 39.6568C17.4585 38.841 17.2429 38.0399 16.835 37.3334L21 33.1684C21.7561 33.6276 22.6291 33.8577 23.5133 33.8308C24.3975 33.8039 25.2549 33.5211 25.9816 33.0167L28.5366 35.2451C28.1652 35.978 27.9939 36.796 28.04 37.6164C28.0861 38.4368 28.348 39.2304 28.7992 39.9171C29.2504 40.6038 29.8749 41.1592 30.6096 41.5272C31.3443 41.8951 32.1631 42.0625 32.9833 42.0125C33.8034 41.9625 34.5958 41.6969 35.2804 41.2424C35.965 40.788 36.5174 40.1608 36.8818 39.4244C37.2463 38.688 37.4098 37.8684 37.356 37.0485C37.3021 36.2286 37.0327 35.4375 36.575 34.7551L41.055 29.7967C42.0664 30.3132 43.2313 30.4431 44.3316 30.1622C45.4319 29.8813 46.392 29.2088 47.0321 28.2707C47.6721 27.3327 47.9481 26.1935 47.8085 25.0665C47.6688 23.9395 47.1229 22.9022 46.2733 22.1488C45.4236 21.3954 44.3283 20.9777 43.1927 20.9739C42.0572 20.9701 40.9592 21.3806 40.1045 22.1283C39.2498 22.876 38.6971 23.9097 38.5499 25.0357C38.4027 26.1617 38.6712 27.3028 39.305 28.2451L34.825 33.2034C34.0822 32.809 33.2453 32.6266 32.4057 32.676C31.5662 32.7253 30.7564 33.0047 30.065 33.4834L27.51 31.2551C27.8786 30.5321 28.0524 29.7254 28.014 28.9147C27.9757 28.1041 27.7266 27.3174 27.2914 26.6324C26.8561 25.9475 26.2498 25.3878 25.5321 25.0088C24.8145 24.6297 24.0105 24.4444 23.1993 24.471C22.3882 24.4977 21.598 24.7354 20.9069 25.1607C20.2157 25.5861 19.6474 26.1843 19.258 26.8964C18.8687 27.6085 18.6718 28.4098 18.6867 29.2212C18.7017 30.0326 18.928 30.8261 19.3433 31.5234L15.1666 35.6651C14.5475 35.2938 13.8507 35.0712 13.131 35.0148C12.4114 34.9584 11.6884 35.0698 11.019 35.3401C10.3496 35.6104 9.7521 36.0323 9.2734 36.5727C8.7947 37.1131 8.4479 37.7571 8.26025 38.4542C8.07261 39.1513 8.04925 39.8824 8.19201 40.5901C8.33477 41.2977 8.63976 41.9626 9.08299 42.5324C9.52621 43.1022 10.0956 43.5614 10.7463 43.8739C11.3971 44.1865 12.1115 44.3437 12.8333 44.3334ZM43.1667 23.3334C43.6281 23.3334 44.0793 23.4702 44.463 23.7266C44.8467 23.983 45.1458 24.3474 45.3224 24.7738C45.499 25.2002 45.5452 25.6693 45.4551 26.1219C45.3651 26.5746 45.1429 26.9903 44.8166 27.3166C44.4902 27.643 44.0745 27.8652 43.6219 27.9552C43.1692 28.0453 42.7001 27.9991 42.2737 27.8224C41.8474 27.6458 41.4829 27.3468 41.2266 26.9631C40.9702 26.5793 40.8333 26.1282 40.8333 25.6667C40.8333 25.0479 41.0791 24.4544 41.5167 24.0168C41.9543 23.5792 42.5478 23.3334 43.1667 23.3334ZM35 37.3334C35 37.7949 34.8631 38.246 34.6067 38.6297C34.3504 39.0134 33.9859 39.3125 33.5596 39.4891C33.1332 39.6657 32.6641 39.7119 32.2114 39.6219C31.7588 39.5319 31.3431 39.3096 31.0167 38.9833C30.6904 38.657 30.4682 38.2412 30.3782 37.7886C30.2881 37.336 30.3343 36.8668 30.5109 36.4405C30.6875 36.0141 30.9866 35.6497 31.3703 35.3933C31.754 35.1369 32.2052 35.0001 32.6667 35.0001C33.2855 35.0001 33.879 35.2459 34.3166 35.6835C34.7542 36.1211 35 36.7146 35 37.3334ZM23.3333 26.8334C23.7795 26.8359 24.2157 26.9663 24.5901 27.2092C24.9644 27.452 25.2613 27.7971 25.4455 28.2036C25.6297 28.61 25.6935 29.0608 25.6293 29.5024C25.5651 29.944 25.3756 30.3579 25.0833 30.6951C24.827 30.9907 24.5005 31.2172 24.1337 31.3536C23.767 31.49 23.3718 31.532 22.9845 31.4758C22.5973 31.4195 22.2305 31.2667 21.9177 31.0315C21.605 30.7963 21.3564 30.4862 21.1949 30.1298C21.0334 29.7734 20.9641 29.3821 20.9934 28.9919C21.0228 28.6017 21.1497 28.2251 21.3627 27.8968C21.5756 27.5686 21.8677 27.2991 22.2121 27.1133C22.5565 26.9274 22.942 26.8312 23.3333 26.8334ZM12.8333 37.3334C13.2948 37.3334 13.7459 37.4702 14.1296 37.7266C14.5134 37.983 14.8124 38.3474 14.989 38.7738C15.1656 39.2002 15.2118 39.6693 15.1218 40.1219C15.0318 40.5746 14.8096 40.9903 14.4832 41.3166C14.1569 41.643 13.7411 41.8652 13.2885 41.9552C12.8359 42.0453 12.3667 41.9991 11.9404 41.8224C11.514 41.6458 11.1496 41.3468 10.8932 40.9631C10.6368 40.5793 10.5 40.1282 10.5 39.6667C10.5 39.0479 10.7458 38.4544 11.1834 38.0168C11.621 37.5792 12.2145 37.3334 12.8333 37.3334Z" fill="#303030"/>
<path d="M52.5 0H3.5C2.57174 0 1.6815 0.368749 1.02513 1.02513C0.368749 1.6815 0 2.57174 0 3.5L0 52.5C0 53.4283 0.368749 54.3185 1.02513 54.9749C1.6815 55.6312 2.57174 56 3.5 56H52.5C53.4283 56 54.3185 55.6312 54.9749 54.9749C55.6312 54.3185 56 53.4283 56 52.5V3.5C56 2.57174 55.6312 1.6815 54.9749 1.02513C54.3185 0.368749 53.4283 0 52.5 0ZM2.33333 3.5C2.33333 3.19058 2.45625 2.89383 2.67504 2.67504C2.89383 2.45625 3.19058 2.33333 3.5 2.33333H52.5C52.8094 2.33333 53.1062 2.45625 53.325 2.67504C53.5438 2.89383 53.6667 3.19058 53.6667 3.5V9.33333H2.33333V3.5ZM53.6667 52.5C53.6667 52.8094 53.5438 53.1062 53.325 53.325C53.1062 53.5438 52.8094 53.6667 52.5 53.6667H3.5C3.19058 53.6667 2.89383 53.5438 2.67504 53.325C2.45625 53.1062 2.33333 52.8094 2.33333 52.5V11.6667H53.6667V52.5Z" fill="#303030"/>
<path d="M5.00508 5.00501C4.84288 5.16855 4.73271 5.37644 4.68847 5.60249C4.64423 5.82854 4.66789 6.06263 4.75647 6.27525C4.84506 6.48787 4.9946 6.66952 5.18624 6.79729C5.37789 6.92506 5.60308 6.99325 5.83342 6.99325C6.06375 6.99325 6.28894 6.92506 6.48059 6.79729C6.67224 6.66952 6.82177 6.48787 6.91036 6.27525C6.99894 6.06263 7.0226 5.82854 6.97836 5.60249C6.93412 5.37644 6.82395 5.16855 6.66175 5.00501C6.55329 4.89566 6.42426 4.80887 6.28209 4.74964C6.13992 4.69041 5.98743 4.65991 5.83342 4.65991C5.6794 4.65991 5.52691 4.69041 5.38474 4.74964C5.24257 4.80887 5.11354 4.89566 5.00508 5.00501Z" fill="#303030"/>
<path d="M10.9433 4.75996C10.6659 4.67546 10.3669 4.69734 10.1047 4.82134C9.84247 4.94533 9.63586 5.16255 9.52513 5.43063C9.4144 5.69871 9.4075 5.99842 9.50578 6.27131C9.60405 6.5442 9.80045 6.7707 10.0567 6.90663C10.3341 6.99114 10.6331 6.96926 10.8953 6.84526C11.1575 6.72126 11.3642 6.50404 11.4749 6.23596C11.5856 5.96789 11.5925 5.66817 11.4942 5.39528C11.396 5.12239 11.1996 4.8959 10.9433 4.75996Z" fill="#303030"/>
<path d="M15.995 5.00503C15.8318 4.8405 15.6234 4.72829 15.3961 4.6827C15.1689 4.63712 14.9333 4.66024 14.7193 4.7491C14.5053 4.83796 14.3226 4.98854 14.1945 5.18165C14.0664 5.37475 13.9987 5.60164 14 5.83336C14.001 6.02444 14.0488 6.21237 14.1394 6.38061C14.23 6.54886 14.3605 6.69228 14.5195 6.79828C14.6785 6.90427 14.8611 6.96959 15.0512 6.9885C15.2414 7.0074 15.4333 6.97931 15.61 6.9067C15.7876 6.83389 15.9444 6.71842 16.0666 6.57052C16.1889 6.42261 16.2727 6.24684 16.3108 6.05877C16.3489 5.8707 16.34 5.67615 16.2849 5.49234C16.2298 5.30854 16.1303 5.14116 15.995 5.00503Z" fill="#303030"/>
<path d="M47.8333 4.66663H29.1667C28.8572 4.66663 28.5605 4.78954 28.3417 5.00833C28.1229 5.22713 28 5.52387 28 5.83329C28 6.14271 28.1229 6.43946 28.3417 6.65825C28.5605 6.87704 28.8572 6.99996 29.1667 6.99996H47.8333C48.1428 6.99996 48.4395 6.87704 48.6583 6.65825C48.8771 6.43946 49 6.14271 49 5.83329C49 5.52387 48.8771 5.22713 48.6583 5.00833C48.4395 4.78954 48.1428 4.66663 47.8333 4.66663Z" fill="#303030"/>
</g>
<defs>
<clipPath id="clip0_62_1065">
<rect width="56" height="56" fill="white"/>
</clipPath>
</defs>
</svg>
