<svg width="57" height="57" viewBox="0 0 57 57" fill="none" xmlns="http://www.w3.org/2000/svg">
<g clip-path="url(#clip0_441_6624)">
<path d="M49.2065 7.88603H48.542C49.8086 5.82402 49.3409 3.05568 47.3082 1.54754C45.118 -0.0773031 42.0056 0.445718 40.4771 2.72986L37.0268 7.88614H7.38709C4.95081 7.88614 2.96875 9.86819 2.96875 12.3045V40.5526C2.96875 42.9889 4.95081 44.971 7.38709 44.971H24.5492L23.2525 50.4174H20.4538C18.6297 50.4174 17.1458 51.9013 17.1458 53.7253V54.416H13.6956C13.0915 54.416 12.6019 54.9057 12.6019 55.5097C12.6019 56.1137 13.0915 56.6034 13.6956 56.6034H42.898C43.5021 56.6034 43.9918 56.1137 43.9918 55.5097C43.9918 54.9057 43.5021 54.416 42.898 54.416H39.4479V53.7253C39.4479 51.9013 37.9639 50.4174 36.1399 50.4174H33.3412L32.0444 44.971H49.2066C51.6428 44.971 53.6249 42.9889 53.6249 40.5526V34.337V12.3044C53.6249 9.86808 51.6428 7.88603 49.2065 7.88603ZM33.5353 27.1137C31.8252 28.3108 28.6216 26.6836 25.5622 28.3161C24.8158 24.4383 25.2864 20.7913 29.1719 19.9863C29.674 19.8816 30.2146 19.8342 30.6749 19.8434C31.99 20.8191 33.3202 21.806 34.6315 22.7791C35.2056 24.449 34.9902 26.0953 33.5353 27.1137ZM34.6376 15.3902L37.7336 17.6873L35.3526 20.5901C34.3724 19.8629 33.5298 19.2377 32.5496 18.5104C32.7532 18.2062 34.4515 15.6681 34.6376 15.3902ZM42.2952 3.94641C43.1236 2.7082 44.8131 2.42012 46.0048 3.3044C47.1969 4.18879 47.4104 5.8891 46.4658 7.0409C44.7897 9.08431 40.8048 13.9428 39.1223 15.9941L35.8553 13.5701L42.2952 3.94641ZM37.2603 53.7253V54.416H19.3332V53.7253C19.3332 53.1075 19.8359 52.6049 20.4538 52.6049H36.1398C36.7576 52.6049 37.2603 53.1075 37.2603 53.7253ZM31.0925 50.4174H25.5011L26.7978 44.971H29.7957L31.0925 50.4174ZM51.4374 40.5526C51.4374 41.7828 50.4367 42.7835 49.2066 42.7835C47.4704 42.7835 9.33928 42.7835 7.3872 42.7835C6.15708 42.7835 5.15632 41.7828 5.15632 40.5526V35.4307H8.28176C8.88582 35.4307 9.37548 34.9409 9.37548 34.337C9.37548 33.733 8.88582 33.2432 8.28176 33.2432H5.1561V12.3044C5.1561 11.0742 6.15686 10.0735 7.38698 10.0735H35.5631C34.5153 11.6394 31.4584 16.2077 30.4901 17.6546C28.3468 17.6739 26.2069 18.4206 24.806 20.0559C22.8998 22.2811 22.5649 25.7776 23.8106 30.448C24.0236 31.2466 25.0201 31.5328 25.623 30.9568C28.4511 28.2545 31.9733 31.2021 35.1275 28.6492C37.0529 27.0906 37.5086 24.6129 36.7826 22.2959C37.764 21.0994 45.8238 11.2729 46.8075 10.0735H49.2063C50.4365 10.0735 51.4372 11.0742 51.4372 12.3044V33.2431H17.0314C16.4273 33.2431 15.9376 33.7329 15.9376 34.3369C15.9376 34.9408 16.4273 35.4306 17.0314 35.4306H51.4374V40.5526Z" fill="white"/>
<path d="M12.4453 33.2644C11.9188 33.3721 11.5659 33.8274 11.5659 34.3379C11.5659 35.0223 12.1914 35.5464 12.8729 35.4102C13.4786 35.2872 13.8475 34.7034 13.7315 34.1234C13.6098 33.5249 13.0295 33.1468 12.4453 33.2644Z" fill="white"/>
</g>
<defs>
<clipPath id="clip0_441_6624">
<rect width="56" height="56" fill="white" transform="translate(0.296875 0.603516)"/>
</clipPath>
</defs>
</svg>
